HIERARCHY
ROOT root
{
	OFFSET	0	13.1	24.9
	CHANNELS 6  Xposition Yposition Zposition Xrotation Yrotation Zrotation
	JOINT spine_1
	{
		OFFSET	0	9.99999	0
		CHANNELS 3  Xrotation Yrotation Zrotation
		JOINT spine_2
		{
			OFFSET	0	112	-10
			CHANNELS 3  Xrotation Yrotation Zrotation
			JOINT spine_3
			{
				OFFSET	0	206.5	19.3
				CHANNELS 3  Xrotation Yrotation Zrotation
				JOINT spine_4
				{
					OFFSET	0	110.4	14.6
					CHANNELS 3  Xrotation Yrotation Zrotation
					JOINT neck_1
					{
						OFFSET	0	71.8	-50.3
						CHANNELS 3  Xrotation Yrotation Zrotation
						JOINT neck_2
						{
							OFFSET	0	86.2	-25.8
							CHANNELS 3  Xrotation Yrotation Zrotation
							JOINT head_ee
							{
								OFFSET	0	179.8	-8.7
								CHANNELS 3  Xrotation Yrotation Zrotation
								End Site
								{
									OFFSET	1	0	0
								}
							}
						}
					}
					JOINT left_clavicle
					{
						OFFSET	-43.2	22.4	-70.8
						CHANNELS 3  Xrotation Yrotation Zrotation
						JOINT left_shoulder
						{
							OFFSET	-93.9	-5.79999	48.7
							CHANNELS 3  Xrotation Yrotation Zrotation
							JOINT left_elbow
							{
								OFFSET	-291.4	-30.8	15.2
								CHANNELS 3  Xrotation Yrotation Zrotation
								JOINT left_lowarm_twist
								{
									OFFSET	-110.7	-3.89999	13.6
									CHANNELS 3  Xrotation Yrotation Zrotation
									JOINT left_hand
									{
										OFFSET	-110.7	-3.89999	13.6
										CHANNELS 3  Xrotation Yrotation Zrotation
										JOINT left_ee
										{
											OFFSET	-80.8	-5.10001	12.1
											CHANNELS 3  Xrotation Yrotation Zrotation
											End Site
											{
												OFFSET	1	0	0
											}
										}
									}
								}
							}
						}
					}
					JOINT right_clavicle
					{
						OFFSET	43.2	22.4	-70.8
						CHANNELS 3  Xrotation Yrotation Zrotation
						JOINT right_shoulder
						{
							OFFSET	93.9	-5.79999	48.7
							CHANNELS 3  Xrotation Yrotation Zrotation
							JOINT right_elbow
							{
								OFFSET	291.4	-30.8	15.2
								CHANNELS 3  Xrotation Yrotation Zrotation
								JOINT right_lowarm_twist
								{
									OFFSET	110.7	-3.89999	13.6
									CHANNELS 3  Xrotation Yrotation Zrotation
									JOINT right_hand
									{
										OFFSET	110.7	-3.89999	13.6
										CHANNELS 3  Xrotation Yrotation Zrotation
										JOINT right_ee
										{
											OFFSET	80.8	-5.10001	12.1
											CHANNELS 3  Xrotation Yrotation Zrotation
											End Site
											{
												OFFSET	1	0	0
											}
										}
									}
								}
							}
						}
					}
				}
			}
		}
	}
	JOINT left_hip
	{
		OFFSET	-82.8	-127.5	0.300001
		CHANNELS 3  Xrotation Yrotation Zrotation
		JOINT left_knee
		{
			OFFSET	-28.2	-396.7	2.2
			CHANNELS 3  Xrotation Yrotation Zrotation
			JOINT left_ankle
			{
				OFFSET	-11.7	-411.3	35.4
				CHANNELS 3  Xrotation Yrotation Zrotation
				JOINT left_toes
				{
					OFFSET	0	-60	-88.6
					CHANNELS 3  Xrotation Yrotation Zrotation
					JOINT left_foot_ee
					{
						OFFSET	-22.5	-16.5	-42.2
						CHANNELS 3  Xrotation Yrotation Zrotation
						End Site
						{
							OFFSET	1	0	0
						}
					}
				}
			}
		}
	}
	JOINT right_hip
	{
		OFFSET	82.8	-127.5	0.300001
		CHANNELS 3  Xrotation Yrotation Zrotation
		JOINT right_knee
		{
			OFFSET	28.2	-396.7	2.2
			CHANNELS 3  Xrotation Yrotation Zrotation
			JOINT right_ankle
			{
				OFFSET	11.7	-411.3	35.4
				CHANNELS 3  Xrotation Yrotation Zrotation
				JOINT right_toes
				{
					OFFSET	0	-60	-88.6
					CHANNELS 3  Xrotation Yrotation Zrotation
					JOINT right_foot_ee
					{
						OFFSET	22.5	-16.5	-42.2
						CHANNELS 3  Xrotation Yrotation Zrotation
						End Site
						{
							OFFSET	1	0	0
						}
					}
				}
			}
		}
	}
}
MOTION
Frames: 8
Frame Time: 0.02
2159.19 709.521 -1354.14 -4.217 68.2042 -4.07221 1.92026 0.694386 2.4183 1.92336 0.539144 2.45755 1.9467 0.0962798 2.51412 1.93822 0.492008 2.46742 -6.87993 14.524 -2.49183 -6.8322 28.781 0.463863 -0.0 0.0 -0.0 -4.5011 21.4464 -3.95864 -15.7422 -20.3908 66.7727 2.14348 -46.7115 0.925691 10.4536 0.249388 -1.31023 0.707156 -3.92058 3.10143 -0.0 0.0 -0.0 13.6681 23.3735 -27.5185 -7.21876 11.4095 -62.4529 0.257287 7.2635 -0.0163303 19.5483 -0.269685 2.47046 0.0565425 6.50829 2.37952 0.0 0.0 0.0 2.80248 18.5879 4.95025 -18.9243 0.306888 2.87469 39.9514 13.0645 -4.90203 -32.1027 0.0 0.0 -0.0 0.0 -0.0 1.57311 4.24012 9.73847 -21.5653 -0.273755 -3.27853 38.4532 21.1344 5.26106 -15.8572 0.0 0.0 0.0 0.0 0.0 
2151.24 708.484 -1356.1 -5.1761 69.3904 -3.4383 1.96375 0.761746 2.31222 1.96651 0.613112 2.35597 1.99195 0.189025 2.42706 1.98418 0.569853 2.3668 -7.85906 14.3562 -1.61278 -7.92024 27.9397 1.56503 -0.0 0.0 -0.0 -4.63146 23.0052 -3.76274 -16.3616 -20.7185 67.1673 2.07307 -45.756 0.874841 9.42144 0.235456 -1.17912 0.744413 -4.39785 3.15262 -0.0 0.0 -0.0 13.6375 24.4801 -27.3311 -6.00641 12.0622 -62.3204 0.287388 8.10258 -0.0203548 19.6722 -0.268689 2.48626 0.0594604 6.37366 2.30246 0.0 0.0 0.0 5.26429 19.0602 4.2173 -20.736 0.286163 3.15189 39.4701 13.5159 -4.86446 -31.7967 0.0 0.0 -0.0 0.0 -0.0 0.968892 2.42612 10.0646 -20.9522 -0.283105 -3.18493 38.1061 21.1357 5.22817 -14.3881 0.0 0.0 0.0 0.0 0.0 
2146.76 706.435 -1357.08 -6.19632 70.0528 -2.66099 2.07287 0.832704 2.2177 2.07534 0.689936 2.26616 2.10281 0.28507 2.3516 2.09569 0.652788 2.27714 -8.16459 14.5174 0.423037 -8.26284 26.8556 3.68926 -0.0 0.0 -0.0 -4.60156 23.6534 -3.56059 -16.8005 -20.6244 67.7035 1.77952 -41.3931 0.672347 8.84668 0.226675 -1.10622 0.725466 -4.73349 2.88389 -0.0 0.0 -0.0 13.7238 25.7627 -27.386 -4.69715 12.7365 -62.0314 0.361794 10.161 -0.0321652 18.8015 -0.274962 2.37522 0.114433 7.10001 2.24058 0.0 0.0 0.0 9.44613 18.0932 2.93182 -28.5936 0.095359 4.34171 40.263 12.2099 -4.91981 -30.5233 0.0 0.0 -0.0 0.0 -0.0 0.670554 0.00620651 10.465 -20.1527 -0.293792 -3.06272 38.426 20.4281 5.22736 -12.7543 0.0 0.0 0.0 0.0 0.0 
2141.3 706.223 -1357.34 -6.51567 70.3444 -2.45498 2.18393 0.943316 2.16186 2.18617 0.803875 2.21747 2.21745 0.410487 2.32264 2.21075 0.772063 2.22874 -8.75203 14.2054 1.49262 -8.88192 25.6057 4.79955 -0.0 0.0 -0.0 -4.47875 23.9911 -3.30855 -18.6533 -20.3539 67.8267 1.57081 -37.8849 0.539138 8.65636 0.223607 -1.08211 0.766395 -5.1801 2.97228 -0.0 0.0 -0.0 13.8005 26.41 -27.4857 -2.77117 13.6602 -61.3359 0.419825 11.7485 -0.0431942 18.5414 -0.276508 2.34204 0.148373 8.00864 2.39851 0.0 0.0 0.0 12.3197 16.9748 1.86113 -34.8532 -0.172204 5.26451 40.8375 12.1037 -4.96885 -29.5852 0.0 0.0 -0.0 0.0 -0.0 0.583856 -2.33329 10.6569 -19.5253 -0.300984 -2.96672 38.9847 18.8439 5.21339 -12.0446 0.0 0.0 0.0 0.0 0.0 
2140.14 706.571 -1361.78 -6.9621 70.1089 -1.8886 2.21502 0.92895 2.18168 2.21732 0.788278 2.23633 2.24822 0.393122 2.33833 2.24139 0.757393 2.24698 -9.67259 13.6878 1.91469 -9.84811 24.4653 5.28405 -0.0 0.0 -0.0 -4.39528 23.9864 -3.19532 -20.4989 -19.9857 68.0995 1.36203 -34.0062 0.416514 9.00129 0.229109 -1.12582 0.759379 -5.27415 2.88534 -0.0 0.0 -0.0 13.802 26.9886 -27.4152 -0.275684 14.9224 -61.6924 0.577064 15.9533 -0.0808619 17.5501 -0.281021 2.2155 0.237844 9.36985 2.3746 0.0 0.0 0.0 17.7402 13.5948 0.79687 -40.6887 -0.511163 6.09441 40.5163 12.2895 -4.9429 -29.6492 0.0 0.0 -0.0 0.0 -0.0 0.528207 -2.76912 10.5579 -18.9247 -0.306885 -2.87475 38.8074 16.8533 5.12181 -11.1608 0.0 0.0 0.0 0.0 0.0 
2135.03 705.985 -1360.27 -7.46343 70.9952 -1.36178 2.24187 0.806627 2.26201 2.24447 0.661095 2.30872 2.27113 0.256259 2.38775 2.26372 0.630043 2.31738 -9.85702 12.8682 1.35627 -10.0294 23.317 4.56745 -0.0 0.0 -0.0 -4.7189 23.9466 -3.64922 -22.857 -19.948 68.8391 1.35704 -33.9087 0.413723 9.63025 0.238465 -1.20562 0.535298 -4.65601 1.63428 -0.0 0.0 -0.0 13.5587 27.0918 -26.8363 2.44471 16.0571 -61.9868 0.657593 18.0432 -0.104408 16.7447 -0.283076 2.11266 0.397471 12.4472 2.61332 0.0 0.0 0.0 22.2156 9.08832 1.49923 -45.2531 -0.834329 6.71746 39.2475 13.6249 -4.8457 -29.8294 0.0 0.0 -0.0 0.0 -0.0 1.60471 -5.81004 10.7181 -19.2246 -0.304059 -2.92068 38.8646 14.7391 5.05594 -9.49769 0.0 0.0 0.0 0.0 0.0 
2133.45 708.977 -1362.45 -9.36628 72.6625 0.690954 2.23442 0.765567 2.30192 2.23715 0.61758 2.34594 2.26243 0.206611 2.41702 2.25475 0.585635 2.35411 -10.3637 12.4121 1.3655 -10.5517 22.5062 4.55791 -0.0 0.0 -0.0 -4.96559 24.1602 -3.93324 -24.3068 -18.8308 69.6436 1.1462 -29.5867 0.302706 9.82154 0.241137 -1.22991 0.598427 -4.28049 2.21767 -0.0 0.0 -0.0 13.4366 27.2957 -26.5268 4.94601 17.1385 -62.0451 0.746872 20.3034 -0.133735 16.7574 -0.283054 2.11428 0.42013 12.1276 2.3235 0.0 0.0 0.0 26.2087 7.30637 0.849231 -46.7284 -0.949319 6.9132 38.4525 11.97 -4.75461 -30.0481 0.0 0.0 -0.0 0.0 -0.0 0.639334 -4.06951 10.3102 -18.7369 -0.308531 -2.84598 38.8958 14.9758 5.06628 -9.48761 0.0 0.0 0.0 0.0 0.0 
2127.47 709.64 -1362.7 -10.6466 74.2091 2.13472 2.23183 0.5511 2.47586 2.23516 0.392489 2.50588 2.25214 -0.0432271 2.53605 2.24334 0.357708 2.51108 -8.94438 11.6892 -0.158416 -9.04764 22.0324 2.60769 -0.0 0.0 -0.0 -5.27428 23.9406 -4.41584 -26.6624 -19.6218 70.5377 1.08947 -28.3545 0.275225 9.46563 0.236101 -1.18472 0.400608 -1.4883 2.0567 -0.0 0.0 -0.0 13.2489 26.4908 -26.1938 7.42595 18.1949 -61.8664 0.842972 22.6644 -0.168938 14.3609 -0.280683 1.80822 0.800003 14.158 0.641005 0.0 0.0 0.0 29.0508 4.57439 0.97722 -46.2052 -0.907964 6.84412 39.5663 10.537 -4.84233 -32.0648 0.0 0.0 -0.0 0.0 -0.0 0.775141 -7.21064 9.87648 -18.2759 -0.312173 -2.77535 37.7461 13.4181 4.91356 -9.19511 0.0 0.0 0.0 0.0 0.0 
